<svg width="20" height="25" viewBox="0 0 20 25" fill="none" xmlns="http://www.w3.org/2000/svg">
<g clip-path="url(#clip0_0_323)">
<path fill-rule="evenodd" clip-rule="evenodd" d="M10.6083 1.66765C12.1603 1.93466 13.5646 2.75697 14.5636 3.98364C15.5626 5.21032 16.0892 6.75906 16.0467 8.34559V13.4265C16.0366 14.379 16.2596 15.3194 16.696 16.1643C17.1323 17.0093 17.7686 17.7327 18.5485 18.2706L19.6003 19.0529C19.7429 19.1605 19.855 19.3038 19.9257 19.4685C19.9964 19.6333 20.0231 19.8138 20.0032 19.9921C19.9833 20.1705 19.9174 20.3405 19.8122 20.4853C19.707 20.6301 19.5661 20.7447 19.4034 20.8176C19.1603 20.9156 18.9008 20.9655 18.639 20.9647H1.364C1.1022 20.9655 0.84269 20.9156 0.599594 20.8176C0.436905 20.7447 0.295963 20.6301 0.190751 20.4853C0.0855393 20.3405 0.0197153 20.1705 -0.00019015 19.9921C-0.0200956 19.8138 0.00660939 19.6333 0.0772752 19.4685C0.147941 19.3038 0.260111 19.1605 0.402657 19.0529L1.45882 18.2721C2.23811 17.7335 2.87369 17.0096 3.3093 16.1644C3.74491 15.3193 3.96712 14.3789 3.95627 13.4265V8.34559C3.91825 6.8259 4.39937 5.33918 5.31905 4.13445C6.23872 2.92971 7.5411 2.08011 9.00805 1.72794V0H10.6127L10.6083 1.66765ZM6.60835 22.5809C6.75635 23.3088 7.16369 23.9568 7.7534 24.4025C8.34311 24.8482 9.07434 25.0608 9.80893 25C10.5433 25.0604 11.2741 24.8477 11.8635 24.402C12.4529 23.9563 12.8601 23.3085 13.0081 22.5809H6.60835Z" fill="white"/>
</g>
<defs>
<clipPath id="clip0_0_323">
<rect width="20" height="25" fill="white"/>
</clipPath>
</defs>
</svg>
