<svg width="32" height="32" viewBox="0 0 24 24" fill="white" xmlns="http://www.w3.org/2000/svg">
<path d="M6 12C6 15.36 8.64 18 12 18C15.36 18 18 15.36 18 12C18 8.64 15.36 6 12 6C8.64 6 6 8.64 6 12ZM12 8.4C14.04 8.4 15.6 9.96 15.6 12C15.6 14.04 14.04 15.6 12 15.6C9.96 15.6 8.4 14.04 8.4 12C8.4 9.96 9.96 8.4 12 8.4ZM13.2 3.6V1.2C13.2 0.48 12.72 0 12 0C11.28 0 10.8 0.48 10.8 1.2V3.6C10.8 4.32 11.28 4.8 12 4.8C12.72 4.8 13.2 4.32 13.2 3.6ZM20.52 3.48C20.04 3 19.32 3 18.84 3.48L17.16 5.16C16.68 5.64 16.68 6.36 17.16 6.84C17.4 7.08 17.76 7.2 18 7.2C18.24 7.2 18.6 7.08 18.84 6.84L20.52 5.16C21 4.8 21 3.96 20.52 3.48V3.48ZM22.8 10.8H20.4C19.68 10.8 19.2 11.28 19.2 12C19.2 12.72 19.68 13.2 20.4 13.2H22.8C23.52 13.2 24 12.72 24 12C24 11.28 23.52 10.8 22.8 10.8ZM18.84 17.04C18.36 16.56 17.64 16.56 17.16 17.04C16.68 17.52 16.68 18.24 17.16 18.72L18.84 20.4C19.08 20.64 19.44 20.76 19.68 20.76C19.92 20.76 20.28 20.64 20.52 20.4C21 19.92 21 19.2 20.52 18.72L18.84 17.04ZM10.8 20.4V22.8C10.8 23.52 11.28 24 12 24C12.72 24 13.2 23.52 13.2 22.8V20.4C13.2 19.68 12.72 19.2 12 19.2C11.28 19.2 10.8 19.68 10.8 20.4ZM3.48 20.52C3.72 20.76 4.08 20.88 4.32 20.88C4.56 20.88 4.92 20.76 5.16 20.52L6.84 18.84C7.32 18.36 7.32 17.64 6.84 17.16C6.36 16.68 5.64 16.68 5.16 17.16L3.48 18.84C3 19.2 3 20.04 3.48 20.52ZM0 12C0 12.72 0.48 13.2 1.2 13.2H3.6C4.32 13.2 4.8 12.72 4.8 12C4.8 11.28 4.32 10.8 3.6 10.8H1.2C0.48 10.8 0 11.28 0 12ZM5.16 3.48C4.68 3 3.96 3 3.48 3.48C3 3.96 3 4.68 3.48 5.16L5.16 6.84C5.4 7.2 5.76 7.32 6.12 7.32C6.48 7.32 6.72 7.2 6.96 6.96C7.44 6.48 7.44 5.76 6.96 5.28L5.16 3.48Z" fill="white"/>
</svg>
